<svg id="svg" version="1.1" xmlns="http://www.w3.org/2000/svg" xmlns:xlink="http://www.w3.org/1999/xlink" width="400" height="376.47058823529414" viewBox="0, 0, 400,376.47058823529414"><g id="svgg"><path id="path0" d="M191.337 26.705 C 185.646 30.035,119.717 68.120,81.356 90.239 C 71.930 95.674,63.500 100.739,62.622 101.496 C 59.654 104.051,59.868 97.402,59.978 183.819 L 60.075 260.829 61.105 262.580 C 62.065 264.214,65.196 266.624,67.905 267.816 C 68.363 268.018,69.247 268.495,69.868 268.878 C 71.002 269.576,73.195 270.852,74.953 271.837 C 75.471 272.128,76.573 272.766,77.401 273.257 C 78.230 273.747,79.416 274.413,80.038 274.738 C 80.659 275.062,81.676 275.668,82.298 276.083 C 82.919 276.498,83.936 277.096,84.557 277.412 C 85.179 277.728,86.365 278.409,87.194 278.925 C 88.023 279.440,89.040 280.026,89.454 280.226 C 89.868 280.426,90.885 281.015,91.714 281.535 C 92.542 282.056,93.644 282.684,94.162 282.933 C 94.680 283.181,95.358 283.587,95.669 283.835 C 95.979 284.082,97.127 284.770,98.220 285.363 C 99.312 285.956,100.838 286.815,101.610 287.273 C 102.382 287.731,103.522 288.365,104.143 288.683 C 104.765 289.001,105.951 289.688,106.780 290.211 C 107.608 290.734,108.625 291.325,109.040 291.525 C 109.454 291.725,110.471 292.311,111.299 292.827 C 112.128 293.343,113.315 294.023,113.936 294.338 C 114.557 294.654,115.617 295.252,116.290 295.667 C 116.963 296.082,118.065 296.762,118.738 297.177 C 119.411 297.592,120.471 298.190,121.092 298.506 C 121.714 298.821,122.900 299.501,123.729 300.017 C 124.557 300.533,125.574 301.118,125.989 301.318 C 126.403 301.518,127.420 302.110,128.249 302.632 C 129.077 303.155,130.264 303.841,130.885 304.157 C 131.507 304.472,132.524 305.040,133.145 305.419 C 134.709 306.372,136.912 307.628,139.360 308.959 C 140.499 309.579,141.699 310.317,142.026 310.599 C 142.353 310.881,142.781 311.111,142.976 311.111 C 143.172 311.111,144.260 311.724,145.395 312.472 C 146.529 313.221,147.797 313.988,148.211 314.176 C 148.625 314.365,149.642 314.927,150.471 315.426 C 151.299 315.924,152.486 316.598,153.107 316.922 C 153.729 317.247,154.746 317.846,155.367 318.255 C 155.989 318.663,157.006 319.255,157.627 319.571 C 158.249 319.887,159.435 320.574,160.264 321.096 C 161.092 321.619,162.109 322.222,162.524 322.436 C 162.938 322.651,163.955 323.234,164.783 323.733 C 165.612 324.232,166.798 324.900,167.420 325.218 C 168.041 325.537,169.058 326.113,169.680 326.499 C 171.137 327.403,173.295 328.637,175.895 330.052 C 177.034 330.672,178.220 331.384,178.531 331.634 C 178.842 331.884,179.350 332.196,179.661 332.326 C 179.972 332.457,180.904 332.990,181.733 333.510 C 182.561 334.030,183.663 334.638,184.180 334.862 C 184.698 335.086,185.376 335.488,185.687 335.755 C 185.998 336.022,187.269 336.799,188.512 337.481 C 189.755 338.164,191.196 338.960,191.714 339.251 C 195.989 341.652,195.888 341.620,199.060 341.620 C 202.439 341.620,202.903 341.458,207.533 338.673 C 209.087 337.739,211.290 336.462,212.429 335.836 C 213.569 335.210,233.315 323.830,256.309 310.547 C 279.303 297.265,306.333 281.661,316.375 275.873 C 335.352 264.934,337.129 263.707,337.847 261.040 C 338.130 259.988,338.224 250.842,338.149 231.485 L 338.041 203.454 336.904 201.821 C 334.832 198.844,331.114 197.901,327.841 199.522 C 326.224 200.323,318.353 204.813,303.653 213.318 C 298.412 216.351,293.904 218.832,293.636 218.832 C 291.939 218.832,291.902 218.445,291.902 200.460 C 291.902 189.779,291.752 182.764,291.498 181.580 C 290.682 177.778,286.646 175.211,283.127 176.256 C 281.831 176.641,262.067 187.720,253.804 192.693 C 249.024 195.569,249.188 196.184,248.964 174.613 C 248.754 154.391,248.798 154.733,246.115 152.686 C 242.665 150.055,240.743 150.650,227.119 158.565 C 224.736 159.949,219.397 163.035,215.254 165.424 C 211.111 167.812,202.721 172.652,196.610 176.179 C 174.375 189.010,165.900 193.851,165.265 194.082 C 163.525 194.716,163.465 194.172,163.465 177.733 L 163.465 162.299 164.361 161.470 C 164.853 161.014,165.912 160.282,166.715 159.844 C 167.517 159.406,169.275 158.410,170.621 157.630 C 171.968 156.850,174.002 155.700,175.141 155.076 C 176.281 154.451,177.382 153.813,177.589 153.658 C 177.797 153.503,178.644 153.002,179.473 152.546 C 180.889 151.766,204.430 138.193,205.650 137.453 C 207.079 136.587,215.093 131.978,216.949 130.955 C 218.089 130.327,221.394 128.434,224.294 126.748 C 227.194 125.062,232.024 122.270,235.028 120.543 C 246.050 114.207,247.125 113.432,248.208 111.047 C 249.225 108.805,249.387 60.050,248.387 57.214 C 247.389 54.387,244.714 52.354,241.990 52.354 C 240.182 52.354,238.613 53.169,222.527 62.466 C 214.946 66.848,208.396 70.433,207.971 70.433 C 206.040 70.433,206.027 70.281,206.024 49.163 C 206.022 24.092,206.016 24.072,199.095 24.138 L 195.669 24.171 191.337 26.705 M192.098 44.727 C 192.381 45.689,192.476 51.395,192.396 62.611 L 192.279 79.082 191.149 80.174 C 190.527 80.774,172.307 91.482,150.659 103.968 C 106.319 129.543,108.765 128.069,107.627 129.900 L 106.780 131.262 106.780 183.080 L 106.780 234.898 107.796 236.231 C 111.062 240.514,113.769 240.161,124.240 234.087 C 127.810 232.015,131.643 229.811,132.757 229.188 C 133.870 228.565,134.922 227.915,135.093 227.742 C 135.265 227.570,135.913 227.188,136.535 226.894 C 137.156 226.600,138.296 225.980,139.068 225.515 C 139.840 225.051,141.366 224.185,142.458 223.593 C 143.551 223.000,144.699 222.312,145.009 222.065 C 145.320 221.817,145.998 221.409,146.516 221.158 C 147.034 220.906,148.136 220.288,148.964 219.785 C 149.793 219.281,150.725 218.747,151.036 218.598 C 151.347 218.449,152.448 217.802,153.484 217.159 C 154.520 216.516,155.791 215.784,156.309 215.531 C 157.220 215.086,157.687 214.809,159.697 213.519 C 160.216 213.186,161.403 212.490,162.335 211.972 C 165.568 210.174,166.814 209.452,168.345 208.485 C 169.192 207.951,170.855 207.001,172.042 206.374 C 173.229 205.748,174.649 204.947,175.199 204.595 C 176.154 203.984,180.005 201.752,182.555 200.332 C 183.215 199.964,184.402 199.259,185.192 198.765 C 185.982 198.271,187.561 197.354,188.701 196.728 C 189.840 196.102,191.306 195.268,191.959 194.876 C 193.253 194.098,197.591 191.604,199.505 190.539 C 200.164 190.172,201.351 189.467,202.141 188.972 C 202.932 188.478,204.595 187.511,205.838 186.823 C 208.305 185.457,209.271 184.906,211.357 183.675 C 215.088 181.472,217.974 179.794,218.913 179.284 C 219.484 178.974,222.624 177.170,225.889 175.277 C 235.577 169.660,234.652 168.358,234.652 187.601 L 234.652 202.983 233.701 203.865 C 233.177 204.350,229.915 206.373,226.450 208.360 C 219.203 212.517,201.198 222.881,184.557 232.473 C 178.239 236.115,168.748 241.574,163.465 244.605 C 158.183 247.636,153.606 250.273,153.296 250.466 C 152.721 250.823,148.911 253.009,146.516 254.356 C 145.791 254.764,144.689 255.411,144.068 255.794 C 143.446 256.177,142.514 256.695,141.996 256.944 C 141.478 257.192,140.800 257.594,140.490 257.835 C 140.179 258.077,138.992 258.782,137.853 259.403 C 136.714 260.023,135.188 260.886,134.463 261.321 C 133.738 261.755,131.874 262.839,130.320 263.728 C 128.766 264.618,127.156 265.551,126.742 265.803 C 126.328 266.054,125.565 266.469,125.047 266.725 C 124.529 266.980,123.851 267.387,123.540 267.628 C 123.230 267.870,121.959 268.626,120.716 269.308 C 118.235 270.670,117.321 271.190,115.066 272.526 C 110.499 275.230,109.717 275.420,107.608 274.330 C 105.982 273.490,78.189 257.441,76.200 256.194 C 73.658 254.599,73.823 259.729,73.823 182.301 L 73.823 111.153 74.670 110.230 C 75.137 109.723,90.009 100.959,107.721 90.755 C 125.433 80.551,146.450 68.436,154.426 63.832 C 195.177 40.308,191.368 42.240,192.098 44.727 M234.714 74.812 C 234.791 75.779,234.789 82.827,234.709 90.476 L 234.564 104.382 233.636 105.243 C 233.126 105.716,231.663 106.658,230.384 107.336 C 229.106 108.014,227.806 108.760,227.495 108.993 C 226.951 109.401,226.498 109.669,223.960 111.081 C 222.752 111.754,218.819 114.001,216.065 115.593 C 215.205 116.090,200.687 124.459,183.804 134.192 C 149.076 154.210,151.296 152.841,150.180 154.928 C 149.345 156.490,149.340 156.603,149.153 179.716 C 148.974 201.685,148.926 202.976,148.263 203.709 C 147.706 204.325,136.904 210.778,131.774 213.559 C 131.201 213.870,129.046 215.099,126.986 216.290 C 122.357 218.966,121.124 219.110,120.524 217.043 C 119.767 214.438,120.187 138.616,120.965 137.429 C 121.324 136.881,124.617 134.729,128.686 132.384 C 132.589 130.135,140.527 125.559,146.328 122.217 C 152.128 118.874,173.540 106.519,193.910 94.762 C 238.167 69.216,234.415 71.051,234.714 74.812 M277.599 197.200 C 277.814 197.767,277.966 204.165,277.966 212.692 L 277.966 227.218 276.563 228.541 C 275.791 229.269,274.647 230.099,274.021 230.386 C 273.394 230.673,272.288 231.266,271.563 231.704 C 270.838 232.143,269.313 233.009,268.173 233.629 C 267.034 234.250,265.844 234.979,265.529 235.250 C 265.214 235.520,264.620 235.878,264.210 236.044 C 263.800 236.210,261.769 237.330,259.698 238.531 C 254.893 241.318,255.164 241.161,252.731 242.589 C 251.591 243.258,249.896 244.229,248.964 244.746 C 248.032 245.263,236.735 251.763,223.861 259.190 C 197.906 274.162,199.039 273.659,195.836 271.635 C 194.915 271.052,192.415 269.569,190.281 268.339 C 188.146 267.108,186.112 265.932,185.761 265.724 C 184.439 264.941,179.094 261.908,176.733 260.600 C 171.497 257.700,171.095 256.737,174.300 254.766 C 175.281 254.164,176.422 253.462,176.836 253.206 C 177.250 252.951,178.098 252.486,178.719 252.172 C 179.341 251.859,180.358 251.263,180.979 250.847 C 181.601 250.432,182.618 249.832,183.239 249.513 C 183.861 249.194,185.047 248.528,185.876 248.033 C 186.704 247.538,187.891 246.862,188.512 246.532 C 190.120 245.677,191.178 245.042,191.768 244.578 C 192.049 244.357,193.211 243.668,194.350 243.048 C 195.490 242.427,197.100 241.527,197.928 241.049 C 198.757 240.570,199.859 239.936,200.377 239.640 C 200.895 239.343,201.996 238.700,202.825 238.210 C 203.653 237.720,204.840 237.058,205.461 236.739 C 206.083 236.421,207.100 235.820,207.721 235.405 C 208.343 234.990,209.360 234.384,209.981 234.060 C 210.603 233.735,211.789 233.062,212.618 232.563 C 213.446 232.064,214.463 231.474,214.878 231.251 C 215.292 231.029,216.258 230.474,217.025 230.018 C 218.255 229.288,228.285 223.464,231.526 221.598 C 232.189 221.216,237.258 218.277,242.790 215.066 C 248.322 211.855,253.287 209.008,253.825 208.740 C 254.362 208.472,259.379 205.562,264.972 202.274 C 275.672 195.984,276.942 195.473,277.599 197.200 M323.842 219.284 C 324.180 219.623,324.294 224.107,324.294 237.143 L 324.294 254.551 322.827 255.712 C 322.021 256.351,321.262 256.874,321.141 256.874 C 320.914 256.874,291.630 273.692,290.960 274.206 C 290.753 274.366,289.906 274.869,289.077 275.325 C 287.554 276.163,267.067 287.997,264.485 289.530 C 263.717 289.986,262.832 290.494,262.518 290.660 C 261.936 290.966,257.374 293.577,254.991 294.967 C 254.266 295.389,251.045 297.255,247.834 299.113 C 244.623 300.970,241.742 302.642,241.431 302.829 C 241.121 303.015,238.917 304.288,236.535 305.656 C 234.153 307.025,231.949 308.298,231.638 308.485 C 231.328 308.672,230.088 309.382,228.884 310.062 C 227.679 310.743,226.408 311.470,226.059 311.678 C 225.710 311.886,224.153 312.781,222.599 313.667 C 221.045 314.554,219.520 315.442,219.209 315.640 C 212.033 320.229,199.312 326.969,198.442 326.645 C 197.895 326.441,189.590 321.736,179.986 316.188 C 170.382 310.640,154.642 301.553,145.009 295.995 C 135.377 290.436,127.030 285.504,126.461 285.034 C 124.598 283.496,126.043 282.239,136.037 276.703 C 137.213 276.051,139.539 274.713,141.207 273.729 C 142.874 272.745,144.378 271.940,144.549 271.940 C 144.719 271.940,145.069 271.729,145.327 271.471 C 145.585 271.214,146.870 270.409,148.184 269.682 C 149.497 268.956,151.332 267.920,152.261 267.380 C 155.857 265.290,158.370 265.552,161.959 268.388 C 162.269 268.634,163.286 269.241,164.218 269.737 C 165.151 270.233,166.337 270.917,166.855 271.257 C 167.373 271.596,168.666 272.355,169.729 272.943 C 170.792 273.530,172.822 274.689,174.240 275.518 C 175.658 276.347,177.277 277.279,177.838 277.589 C 178.399 277.900,180.009 278.832,181.416 279.661 C 182.824 280.490,184.434 281.422,184.995 281.733 C 185.555 282.043,187.165 282.976,188.573 283.804 C 195.451 287.854,196.937 288.512,199.208 288.512 C 201.575 288.512,200.328 289.147,218.079 278.908 C 252.223 259.214,316.061 222.320,318.832 220.680 C 321.961 218.827,323.075 218.517,323.842 219.284 " stroke="none" fill="#3ac09b" fill-rule="evenodd"></path><path id="path1" d="M197.638 24.001 C 198.306 24.084,199.493 24.085,200.274 24.004 C 201.056 23.922,200.508 23.854,199.058 23.852 C 197.608 23.851,196.969 23.917,197.638 24.001 M190.207 25.551 C 186.825 27.543,170.836 36.759,139.925 54.533 C 124.904 63.170,124.261 63.540,102.637 75.995 C 99.944 77.546,96.130 79.753,94.162 80.899 C 92.194 82.045,88.380 84.246,85.687 85.791 C 82.994 87.335,78.503 89.925,75.706 91.546 C 72.910 93.167,69.181 95.300,67.420 96.286 C 62.671 98.946,60.812 100.399,59.631 102.371 L 58.569 104.143 58.471 182.056 C 58.402 236.936,58.494 260.415,58.780 261.479 C 59.342 263.567,62.013 266.118,65.913 268.292 C 67.674 269.274,70.810 271.079,72.881 272.303 C 74.953 273.527,78.682 275.667,81.168 277.059 C 83.653 278.451,85.942 279.797,86.252 280.050 C 86.563 280.304,88.106 281.200,89.680 282.042 C 91.255 282.883,93.373 284.081,94.388 284.703 C 95.403 285.326,97.505 286.548,99.058 287.419 C 100.612 288.290,103.493 289.970,105.461 291.152 C 107.429 292.335,109.887 293.761,110.923 294.321 C 111.959 294.881,115.094 296.674,117.891 298.306 C 120.687 299.938,124.399 302.088,126.138 303.084 C 127.878 304.081,130.029 305.320,130.919 305.838 C 136.318 308.979,140.211 311.224,148.776 316.138 C 154.058 319.169,158.889 321.972,159.510 322.367 C 160.132 322.762,161.827 323.759,163.277 324.582 C 164.727 325.405,170.405 328.672,175.895 331.842 C 181.384 335.012,187.589 338.594,189.683 339.801 C 191.776 341.008,193.895 341.994,194.391 341.992 C 195.060 341.989,194.661 341.637,192.844 340.627 C 191.497 339.878,185.056 336.179,178.531 332.406 C 172.006 328.633,165.904 325.115,164.972 324.588 C 164.040 324.061,144.887 313.000,122.411 300.008 C 99.934 287.016,77.392 273.990,72.316 271.062 C 67.241 268.134,62.492 265.200,61.763 264.542 C 58.910 261.968,59.130 268.813,59.132 182.435 L 59.134 105.171 60.169 103.192 C 61.543 100.568,61.517 100.585,86.441 86.231 C 106.202 74.850,123.090 65.104,170.810 37.542 C 181.582 31.321,191.116 25.822,191.996 25.324 C 192.877 24.825,193.597 24.347,193.597 24.262 C 193.597 23.806,192.394 24.264,190.207 25.551 M204.813 24.958 C 206.974 27.258,206.959 27.097,207.078 48.837 C 207.166 64.952,207.285 68.941,207.689 69.276 C 208.214 69.712,209.004 69.283,228.580 57.920 C 238.713 52.038,239.598 51.620,241.939 51.609 C 245.184 51.594,248.457 54.045,249.314 57.130 C 249.868 59.126,249.865 108.870,249.311 110.867 C 248.727 112.968,246.339 115.102,241.603 117.753 C 239.334 119.023,235.358 121.292,232.768 122.794 C 226.345 126.520,192.176 146.182,174.953 156.064 C 168.529 159.750,164.612 162.222,164.318 162.776 C 163.829 163.699,163.599 191.395,164.070 192.625 C 164.439 193.586,165.346 193.333,168.702 191.337 C 170.443 190.301,171.916 189.454,171.975 189.454 C 172.034 189.454,181.203 184.181,192.350 177.737 C 245.534 146.990,239.847 150.079,242.660 150.412 C 249.229 151.190,249.697 152.789,249.709 174.507 C 249.718 191.780,249.803 192.844,251.186 192.844 C 251.766 192.844,260.026 188.267,267.797 183.640 C 283.936 174.029,286.085 173.444,290.179 177.544 C 292.641 180.010,292.655 180.135,292.655 199.546 C 292.655 219.830,292.473 218.883,295.986 216.879 C 297.158 216.210,304.812 211.796,312.994 207.070 C 321.177 202.343,328.538 198.296,329.352 198.075 C 332.700 197.169,336.472 198.962,338.136 202.251 L 338.983 203.926 338.975 232.189 C 338.966 263.527,339.076 262.080,336.497 264.513 C 335.575 265.383,328.672 269.534,317.891 275.702 C 314.385 277.707,306.173 282.455,303.653 283.934 C 302.473 284.626,300.744 285.619,299.812 286.140 C 298.879 286.660,297.185 287.639,296.045 288.315 C 289.011 292.488,285.491 294.539,285.364 294.539 C 285.284 294.539,283.674 295.465,281.787 296.598 C 279.899 297.730,277.632 299.049,276.748 299.527 C 275.864 300.006,273.446 301.390,271.375 302.602 C 263.781 307.045,260.791 308.777,259.134 309.697 C 258.202 310.214,256.168 311.391,254.614 312.314 C 253.060 313.236,250.857 314.508,249.718 315.140 C 248.578 315.772,243.493 318.704,238.418 321.656 C 223.339 330.428,204.412 341.303,203.590 341.668 C 202.953 341.951,203.014 341.988,203.955 341.892 C 204.592 341.826,213.296 337.035,223.917 330.902 C 253.590 313.769,274.808 301.500,283.908 296.212 C 288.522 293.531,292.774 291.083,293.356 290.772 C 293.938 290.461,302.150 285.716,311.604 280.226 C 321.059 274.736,329.265 269.985,329.840 269.669 C 334.639 267.023,336.097 266.048,337.450 264.581 C 339.831 261.997,339.737 263.319,339.734 232.650 C 339.732 200.977,339.830 202.213,337.100 199.565 C 332.887 195.477,328.517 196.542,315.254 204.885 C 314.944 205.081,312.827 206.307,310.551 207.611 C 308.274 208.915,306.126 210.151,305.776 210.358 C 304.801 210.935,300.163 213.598,298.682 214.431 C 297.957 214.839,296.855 215.482,296.234 215.861 C 293.104 217.766,293.443 219.806,293.322 198.305 L 293.220 180.226 292.199 178.655 C 290.915 176.682,289.238 175.409,286.789 174.551 C 283.952 173.557,282.896 174.024,266.235 183.657 C 258.179 188.315,251.420 192.023,251.217 191.898 C 250.985 191.754,250.847 185.769,250.847 175.787 C 250.847 156.589,250.652 155.052,247.853 152.196 C 243.792 148.052,240.293 148.630,229.755 155.186 C 229.226 155.515,224.809 158.093,221.846 159.803 C 221.121 160.221,219.595 161.075,218.456 161.701 C 217.316 162.327,215.738 163.243,214.947 163.737 C 213.357 164.732,211.770 165.644,208.663 167.350 C 207.524 167.976,205.945 168.893,205.154 169.387 C 204.364 169.881,203.178 170.586,202.518 170.953 C 200.604 172.018,196.266 174.512,194.972 175.290 C 194.319 175.683,192.853 176.514,191.714 177.137 C 190.574 177.760,188.795 178.797,187.759 179.442 C 185.730 180.704,185.102 181.066,181.921 182.801 C 180.782 183.422,179.203 184.335,178.412 184.829 C 177.622 185.324,176.436 186.028,175.776 186.396 C 173.360 187.741,169.641 189.895,168.173 190.799 C 163.977 193.384,164.197 194.144,164.311 177.473 L 164.407 163.422 165.348 162.686 C 165.866 162.281,168.314 160.828,170.787 159.456 C 173.261 158.084,176.142 156.414,177.190 155.745 C 178.238 155.076,179.944 154.083,180.979 153.539 C 182.015 152.994,183.710 152.040,184.746 151.417 C 185.782 150.794,187.731 149.666,189.077 148.910 C 190.424 148.154,192.881 146.737,194.539 145.761 C 196.196 144.785,198.992 143.182,200.753 142.199 C 202.514 141.216,204.548 140.032,205.273 139.567 C 205.998 139.103,208.625 137.573,211.111 136.168 C 213.597 134.763,217.241 132.684,219.209 131.547 C 221.177 130.411,223.380 129.142,224.105 128.726 C 250.327 113.702,248.942 114.716,250.154 109.654 C 251.140 105.532,251.209 63.228,250.237 58.515 C 249.299 53.967,246.988 51.538,243.112 51.023 C 240.133 50.628,238.765 51.169,230.508 56.007 C 229.783 56.431,227.580 57.703,225.612 58.833 C 223.644 59.963,219.014 62.625,215.323 64.749 C 211.632 66.873,208.369 68.518,208.072 68.404 C 207.614 68.228,207.533 65.234,207.533 48.396 C 207.533 28.982,207.517 28.564,206.736 27.009 C 205.819 25.186,204.948 24.105,204.396 24.105 C 204.185 24.105,204.372 24.489,204.813 24.958 M187.708 45.732 C 183.819 47.834,79.363 108.135,77.293 109.473 C 76.197 110.182,75.138 111.190,74.938 111.714 C 74.353 113.254,74.465 253.063,75.053 254.179 C 75.482 254.993,81.255 258.455,102.923 270.890 C 110.343 275.148,108.745 275.425,122.470 267.503 C 128.549 263.994,146.149 253.836,161.582 244.929 C 192.515 227.076,215.218 213.968,226.177 207.632 C 230.683 205.027,233.506 203.162,233.799 202.595 C 234.380 201.471,234.479 174.973,233.908 173.471 C 233.291 171.849,233.032 171.959,221.092 178.923 C 218.503 180.433,214.689 182.625,212.618 183.795 C 210.546 184.964,208.134 186.377,207.258 186.934 C 206.382 187.491,205.579 187.947,205.474 187.947 C 205.368 187.947,203.374 189.068,201.040 190.437 C 192.505 195.448,186.677 198.807,180.038 202.544 C 177.655 203.885,175.256 205.302,174.706 205.693 C 174.157 206.083,173.600 206.403,173.470 206.403 C 173.339 206.403,171.586 207.388,169.573 208.592 C 165.761 210.871,155.588 216.745,141.431 224.840 C 139.153 226.143,135.339 228.350,132.957 229.745 C 114.717 240.422,114.398 240.563,111.225 239.351 C 108.697 238.386,106.764 236.491,106.258 234.480 C 105.532 231.597,105.677 133.259,106.411 130.788 C 107.239 128.000,107.956 127.500,126.244 116.972 C 172.412 90.395,190.090 80.113,190.772 79.441 C 191.498 78.726,191.530 78.122,191.638 62.984 C 191.782 42.793,191.931 43.449,187.708 45.732 M190.732 46.170 C 190.858 46.498,190.960 53.803,190.960 62.403 L 190.960 78.041 189.890 79.039 C 189.301 79.588,186.631 81.295,183.957 82.831 C 181.284 84.367,176.977 86.840,174.388 88.327 C 171.798 89.814,167.392 92.354,164.595 93.972 C 161.798 95.589,157.815 97.872,155.744 99.044 C 153.672 100.216,151.299 101.604,150.471 102.128 C 149.642 102.652,146.846 104.273,144.256 105.730 C 139.847 108.210,134.970 111.001,125.989 116.181 C 123.917 117.375,121.714 118.651,121.092 119.017 C 120.471 119.382,118.691 120.400,117.137 121.280 C 108.442 126.204,107.215 127.136,105.980 129.755 L 105.092 131.638 105.088 182.780 C 105.084 238.812,104.947 235.345,107.270 237.793 C 111.819 242.586,113.137 242.190,135.217 229.405 C 144.642 223.947,154.557 218.213,157.250 216.662 C 159.944 215.112,164.350 212.571,167.043 211.017 C 175.221 206.296,178.250 204.550,190.395 197.553 C 196.817 193.853,203.597 189.937,205.461 188.851 C 207.326 187.765,210.461 185.963,212.429 184.846 C 214.397 183.730,219.637 180.726,224.073 178.172 C 230.322 174.574,232.273 173.613,232.736 173.905 C 233.261 174.236,233.345 175.962,233.432 188.095 L 233.531 201.908 232.679 202.745 C 232.210 203.206,228.897 205.277,225.317 207.347 C 221.736 209.417,218.514 211.281,218.156 211.488 C 217.798 211.695,215.584 212.966,213.237 214.313 C 210.889 215.659,208.434 217.072,207.780 217.453 C 202.677 220.426,191.860 226.661,191.013 227.119 C 190.028 227.650,156.393 247.114,155.179 247.855 C 145.736 253.616,110.976 273.191,109.981 273.308 C 109.018 273.421,108.192 273.181,106.915 272.419 C 105.953 271.845,103.835 270.613,102.207 269.681 C 100.579 268.750,98.962 267.818,98.613 267.610 C 98.265 267.402,96.063 266.130,93.721 264.783 C 91.379 263.437,89.173 262.166,88.820 261.959 C 86.680 260.706,80.427 257.112,79.733 256.736 C 76.811 255.155,75.735 254.205,75.523 253.020 C 75.402 252.343,75.351 220.290,75.410 181.791 L 75.518 111.793 76.648 110.881 C 77.269 110.380,79.812 108.813,82.298 107.401 C 84.783 105.988,88.427 103.895,90.395 102.751 C 95.438 99.819,106.931 93.180,118.832 86.324 C 121.525 84.773,124.661 82.962,125.800 82.300 C 127.897 81.082,137.166 75.731,144.068 71.754 C 146.139 70.560,148.766 69.036,149.906 68.367 C 151.045 67.698,154.859 65.492,158.380 63.465 C 161.902 61.438,166.139 58.974,167.797 57.989 C 169.454 57.005,172.166 55.441,173.823 54.515 C 175.480 53.590,179.632 51.199,183.050 49.203 C 189.400 45.495,190.332 45.127,190.732 46.170 M223.352 78.781 C 218.691 81.488,212.589 85.024,209.793 86.638 C 188.514 98.919,160.453 115.090,143.503 124.838 C 132.420 131.212,122.886 136.920,122.316 137.523 L 121.281 138.618 121.281 177.708 C 121.281 217.553,121.286 217.702,122.614 217.702 C 123.161 217.702,147.178 203.928,148.023 203.129 C 148.126 203.031,148.296 192.414,148.399 179.536 L 148.588 156.121 149.584 154.425 C 150.133 153.493,150.895 152.454,151.279 152.116 C 151.891 151.578,162.219 145.593,212.806 116.463 C 231.379 105.768,233.077 104.744,233.691 103.868 C 234.403 102.852,234.581 75.853,233.885 74.552 C 233.202 73.275,232.007 73.755,223.352 78.781 M233.070 75.028 C 233.405 75.363,233.522 79.048,233.522 89.275 L 233.522 103.070 232.674 103.859 C 232.208 104.293,230.132 105.613,228.060 106.792 C 223.466 109.408,222.625 109.893,219.862 111.524 C 218.667 112.229,217.226 113.065,216.660 113.381 C 216.094 113.697,213.888 114.968,211.758 116.205 C 209.629 117.443,207.225 118.824,206.417 119.275 C 204.840 120.154,162.130 144.743,155.558 148.555 C 147.536 153.208,148.029 151.239,148.020 178.719 C 148.016 190.942,147.912 201.315,147.790 201.771 C 147.586 202.533,143.570 205.144,137.853 208.232 C 136.921 208.736,135.311 209.685,134.275 210.341 C 133.239 210.997,132.137 211.647,131.827 211.785 C 131.516 211.924,130.584 212.449,129.755 212.953 C 125.311 215.657,122.486 216.935,122.259 216.344 C 122.135 216.022,122.034 198.521,122.034 177.454 C 122.034 134.758,121.795 138.329,124.763 136.620 C 131.842 132.544,139.011 128.400,157.815 117.518 C 169.727 110.625,181.761 103.675,184.557 102.074 C 187.354 100.472,194.388 96.403,200.188 93.031 C 205.989 89.659,212.006 86.184,213.559 85.309 C 216.087 83.886,218.617 82.431,229.190 76.323 C 232.569 74.371,232.451 74.410,233.070 75.028 M274.953 197.379 C 274.642 197.571,259.557 206.270,241.431 216.710 C 166.772 259.713,172.643 256.191,173.458 257.483 C 173.954 258.270,198.091 272.290,198.977 272.305 C 199.346 272.311,200.448 271.891,201.425 271.371 C 203.217 270.418,203.632 270.177,206.026 268.694 C 206.751 268.245,208.362 267.330,209.605 266.660 C 210.847 265.991,213.220 264.641,214.878 263.660 C 218.583 261.467,223.282 258.724,224.294 258.163 C 224.708 257.933,225.725 257.363,226.554 256.896 C 227.382 256.430,228.992 255.529,230.132 254.896 C 231.271 254.262,232.458 253.539,232.768 253.288 C 233.079 253.038,234.689 252.106,236.347 251.216 C 238.004 250.327,240.253 249.033,241.344 248.340 C 242.436 247.648,243.401 247.081,243.490 247.081 C 243.578 247.081,245.566 245.959,247.908 244.587 C 250.250 243.215,253.098 241.582,254.237 240.956 C 255.377 240.331,256.576 239.589,256.903 239.307 C 257.231 239.025,257.623 238.795,257.775 238.795 C 257.928 238.795,260.118 237.567,262.642 236.066 C 265.166 234.566,267.655 233.128,268.173 232.872 C 268.691 232.616,269.369 232.237,269.680 232.031 C 269.991 231.825,271.589 230.879,273.233 229.930 C 277.545 227.439,277.187 229.025,277.201 212.348 C 277.212 198.311,277.186 197.752,276.484 197.377 C 275.641 196.925,275.690 196.925,274.953 197.379 M276.008 198.569 C 276.673 199.234,276.630 226.299,275.962 227.176 C 275.470 227.824,273.525 229.088,271.996 229.756 C 271.509 229.968,270.220 230.733,269.132 231.455 C 268.044 232.177,267.047 232.768,266.917 232.768 C 266.788 232.768,265.754 233.362,264.621 234.087 C 263.487 234.812,262.474 235.405,262.370 235.405 C 262.265 235.405,261.283 235.937,260.186 236.587 C 259.089 237.238,257.684 238.056,257.062 238.405 C 253.805 240.237,250.663 242.070,249.775 242.656 C 249.226 243.019,248.267 243.574,247.646 243.889 C 245.386 245.036,242.360 246.808,241.479 247.501 C 240.982 247.892,240.401 248.211,240.186 248.211 C 239.971 248.211,239.528 248.443,239.201 248.726 C 238.874 249.009,237.250 249.957,235.593 250.833 C 233.936 251.709,232.326 252.638,232.015 252.896 C 231.704 253.155,230.433 253.941,229.190 254.643 C 227.947 255.345,226.422 256.208,225.800 256.560 C 225.179 256.912,224.247 257.414,223.729 257.675 C 223.211 257.936,222.533 258.348,222.222 258.592 C 221.911 258.835,220.309 259.749,218.662 260.623 C 217.014 261.497,215.254 262.537,214.750 262.933 C 214.247 263.329,213.696 263.653,213.527 263.653 C 213.359 263.653,212.459 264.167,211.528 264.795 C 210.598 265.424,209.318 266.118,208.685 266.339 C 208.051 266.560,207.533 266.877,207.533 267.043 C 207.533 267.210,207.067 267.532,206.497 267.760 C 205.927 267.987,204.218 268.936,202.699 269.868 C 199.998 271.525,198.630 271.911,197.910 271.220 C 197.713 271.031,196.478 270.310,195.165 269.619 C 193.853 268.927,192.328 268.124,191.776 267.833 C 191.224 267.542,190.687 267.188,190.584 267.047 C 190.480 266.906,189.209 266.129,187.759 265.321 C 186.309 264.512,184.614 263.564,183.992 263.213 C 183.371 262.863,182.442 262.384,181.929 262.149 C 181.415 261.915,180.906 261.601,180.799 261.452 C 180.548 261.105,175.550 258.202,174.643 257.876 C 173.511 257.470,174.082 256.431,176.083 255.252 C 177.691 254.305,193.055 245.450,204.331 238.972 C 206.196 237.900,210.942 235.161,214.878 232.883 C 218.814 230.606,223.944 227.656,226.279 226.330 C 228.613 225.003,232.173 222.953,234.188 221.776 C 236.204 220.598,239.972 218.420,242.561 216.936 C 255.818 209.338,262.495 205.492,271.186 200.450 C 275.642 197.865,275.399 197.960,276.008 198.569 M301.883 231.260 C 291.111 237.474,281.026 243.300,279.473 244.207 C 277.919 245.114,275.631 246.410,274.388 247.087 C 273.145 247.764,271.704 248.611,271.186 248.969 C 270.669 249.328,269.397 250.068,268.362 250.614 C 266.470 251.612,266.082 251.836,263.653 253.340 C 262.928 253.788,261.573 254.574,260.640 255.086 C 259.708 255.598,258.267 256.422,257.439 256.916 C 256.610 257.410,255.469 258.068,254.903 258.380 C 254.337 258.691,251.710 260.202,249.065 261.738 C 246.420 263.274,242.053 265.784,239.360 267.314 C 236.667 268.845,233.785 270.515,232.957 271.025 C 232.128 271.535,231.111 272.123,230.697 272.332 C 230.282 272.540,229.312 273.088,228.540 273.549 C 227.768 274.011,226.243 274.875,225.150 275.471 C 224.058 276.067,222.714 276.872,222.164 277.260 C 221.614 277.649,221.068 277.966,220.951 277.966 C 220.833 277.966,219.419 278.751,217.807 279.709 C 214.292 281.801,213.690 282.152,208.851 284.930 C 198.053 291.128,201.498 291.951,175.706 277.010 C 161.502 268.781,157.345 266.535,156.309 266.530 C 155.084 266.525,129.319 280.907,127.213 282.772 C 125.652 284.154,125.036 283.708,141.996 293.483 C 149.350 297.721,164.963 306.727,176.691 313.495 C 190.825 321.651,198.372 325.800,199.071 325.800 C 199.723 325.800,202.805 324.267,207.125 321.793 C 215.044 317.258,217.240 315.994,218.146 315.447 C 218.494 315.238,220.358 314.180,222.289 313.096 C 224.220 312.013,226.224 310.873,226.742 310.564 C 229.233 309.075,233.923 306.373,235.782 305.356 C 236.921 304.733,238.057 304.064,238.307 303.869 C 238.556 303.674,239.319 303.213,240.002 302.845 C 240.684 302.477,242.223 301.602,243.422 300.900 C 244.620 300.198,246.061 299.366,246.623 299.052 C 250.436 296.924,254.949 294.313,255.744 293.776 C 256.664 293.154,258.338 292.198,262.524 289.904 C 263.663 289.279,265.488 288.202,266.580 287.510 C 267.671 286.818,268.651 286.252,268.757 286.252 C 268.863 286.252,270.479 285.320,272.350 284.181 C 274.220 283.041,275.816 282.109,275.896 282.109 C 276.088 282.109,280.423 279.618,282.109 278.539 C 282.834 278.075,285.354 276.612,287.708 275.288 C 290.062 273.964,292.865 272.373,293.937 271.751 C 295.008 271.130,297.150 269.894,298.696 269.004 C 300.242 268.115,301.761 267.226,302.072 267.030 C 302.382 266.833,306.959 264.202,312.241 261.183 C 317.524 258.163,322.269 255.277,322.787 254.768 L 323.729 253.844 323.835 238.496 C 323.951 221.676,323.836 220.203,322.396 220.056 C 321.759 219.991,315.337 223.499,301.883 231.260 M322.787 237.359 C 322.787 255.001,322.930 254.079,319.932 255.844 C 318.794 256.514,317.234 257.437,316.465 257.896 C 315.695 258.354,314.388 259.111,313.559 259.577 C 312.731 260.044,311.714 260.637,311.299 260.895 C 310.885 261.153,310.122 261.573,309.605 261.828 C 309.087 262.084,308.409 262.490,308.098 262.732 C 307.787 262.974,306.601 263.679,305.461 264.299 C 304.322 264.920,302.797 265.790,302.072 266.232 C 301.347 266.675,300.330 267.241,299.812 267.490 C 299.294 267.739,298.616 268.141,298.305 268.383 C 297.994 268.626,296.384 269.548,294.727 270.433 C 293.070 271.318,291.459 272.262,291.148 272.530 C 290.837 272.798,290.159 273.207,289.641 273.439 C 289.124 273.672,288.023 274.273,287.194 274.775 C 286.365 275.277,285.280 275.868,284.781 276.087 C 284.283 276.306,283.105 277.005,282.164 277.640 C 281.223 278.275,280.105 278.957,279.680 279.154 C 278.688 279.616,277.249 280.425,274.087 282.298 C 272.688 283.126,271.082 284.063,270.517 284.380 C 269.465 284.972,265.463 287.303,262.977 288.772 C 262.210 289.226,260.611 290.111,259.424 290.740 C 258.238 291.368,256.543 292.345,255.658 292.911 C 254.773 293.477,253.540 294.218,252.919 294.559 C 251.714 295.220,245.790 298.626,243.128 300.188 C 242.245 300.706,240.040 301.977,238.227 303.013 C 236.414 304.049,234.317 305.262,233.567 305.709 C 232.817 306.155,231.715 306.789,231.119 307.116 C 230.522 307.444,226.745 309.621,222.726 311.954 C 218.706 314.287,214.969 316.450,214.421 316.761 C 213.873 317.072,210.408 319.063,206.720 321.186 C 203.032 323.310,199.597 325.047,199.086 325.047 C 198.416 325.047,153.753 299.768,146.516 295.293 C 145.393 294.599,137.494 290.015,136.090 289.243 C 130.655 286.255,127.872 284.399,127.872 283.762 C 127.872 283.089,153.767 267.722,155.791 267.194 C 156.676 266.963,158.619 267.927,165.348 271.933 C 165.659 272.118,167.608 273.232,169.680 274.408 C 171.751 275.583,173.955 276.868,174.576 277.261 C 181.014 281.339,195.791 289.344,197.468 289.662 C 199.707 290.087,203.047 289.567,203.784 288.680 C 204.032 288.381,204.446 288.136,204.703 288.136 C 204.961 288.136,205.576 287.823,206.070 287.441 C 206.564 287.059,208.324 286.019,209.981 285.129 C 211.638 284.239,213.208 283.342,213.470 283.137 C 213.731 282.931,214.448 282.489,215.063 282.154 C 219.665 279.646,222.873 277.810,223.352 277.410 C 223.663 277.151,225.273 276.215,226.930 275.330 C 228.588 274.445,230.211 273.489,230.538 273.207 C 230.865 272.924,231.308 272.693,231.523 272.693 C 231.738 272.693,232.318 272.381,232.812 271.999 C 233.306 271.617,235.066 270.577,236.723 269.688 C 238.380 268.798,240.004 267.840,240.331 267.557 C 240.658 267.274,241.063 267.043,241.231 267.043 C 241.399 267.043,242.402 266.509,243.461 265.856 C 244.520 265.204,245.979 264.340,246.704 263.937 C 248.184 263.116,259.165 256.760,261.318 255.479 C 262.084 255.023,262.966 254.525,263.277 254.372 C 263.588 254.219,275.198 247.547,289.077 239.545 C 323.567 219.662,321.726 220.681,322.299 221.156 C 322.685 221.476,322.787 224.887,322.787 237.359 " stroke="none" fill="#1d5f4c" fill-rule="evenodd"></path><path id="path2" d="M104.048 43.203 L 26.741 86.387 26.835 183.340 L 26.930 280.293 113.183 328.462 C 160.621 354.955,199.689 376.631,200.000 376.630 C 200.311 376.630,239.379 354.954,286.817 328.461 L 373.070 280.293 373.165 183.340 L 373.259 86.387 295.913 43.194 L 218.566 0.000 199.961 0.009 L 181.356 0.019 104.048 43.203 M205.190 24.569 C 205.475 24.806,206.119 25.810,206.621 26.800 L 207.533 28.600 207.533 48.399 C 207.533 65.235,207.614 68.228,208.072 68.404 C 208.369 68.518,211.632 66.873,215.323 64.749 C 219.014 62.625,223.644 59.963,225.612 58.833 C 227.580 57.703,229.783 56.431,230.508 56.007 C 238.765 51.169,240.133 50.628,243.112 51.023 C 246.988 51.538,249.299 53.967,250.237 58.515 C 251.209 63.228,251.140 105.532,250.154 109.654 C 248.942 114.716,250.327 113.702,224.105 128.726 C 223.380 129.142,221.177 130.411,219.209 131.547 C 217.241 132.684,213.597 134.763,211.111 136.168 C 208.625 137.573,205.998 139.103,205.273 139.567 C 204.548 140.032,202.514 141.216,200.753 142.199 C 198.992 143.182,196.196 144.785,194.539 145.761 C 192.881 146.737,190.424 148.154,189.077 148.910 C 187.731 149.666,185.782 150.794,184.746 151.417 C 183.710 152.040,182.015 152.994,180.979 153.539 C 179.944 154.083,178.238 155.076,177.190 155.745 C 176.142 156.414,173.261 158.084,170.787 159.456 C 168.314 160.828,165.866 162.281,165.348 162.686 L 164.407 163.422 164.311 177.473 C 164.197 194.144,163.977 193.384,168.173 190.799 C 169.641 189.895,173.360 187.741,175.776 186.396 C 176.436 186.028,177.622 185.324,178.412 184.829 C 179.203 184.335,180.782 183.422,181.921 182.801 C 185.102 181.066,185.730 180.704,187.759 179.442 C 188.795 178.797,190.574 177.760,191.714 177.137 C 192.853 176.514,194.319 175.683,194.972 175.290 C 196.266 174.512,200.604 172.018,202.518 170.953 C 203.178 170.586,204.364 169.881,205.154 169.387 C 205.945 168.893,207.524 167.976,208.663 167.350 C 211.770 165.644,213.357 164.732,214.947 163.737 C 215.738 163.243,217.316 162.327,218.456 161.701 C 219.595 161.075,221.121 160.221,221.846 159.803 C 224.809 158.093,229.226 155.515,229.755 155.186 C 240.293 148.630,243.792 148.052,247.853 152.196 C 250.652 155.052,250.847 156.589,250.847 175.787 C 250.847 185.769,250.985 191.754,251.217 191.898 C 251.420 192.023,258.179 188.315,266.235 183.657 C 282.896 174.024,283.952 173.557,286.789 174.551 C 289.238 175.409,290.915 176.682,292.199 178.655 L 293.220 180.226 293.322 198.305 C 293.431 217.716,293.422 217.573,294.439 216.954 C 294.804 216.731,295.612 216.239,296.234 215.861 C 296.855 215.482,297.957 214.839,298.682 214.431 C 300.163 213.598,304.801 210.935,305.776 210.358 C 306.126 210.151,308.274 208.915,310.551 207.611 C 312.827 206.307,314.944 205.081,315.254 204.885 C 328.517 196.542,332.887 195.477,337.100 199.565 C 339.830 202.213,339.732 200.977,339.734 232.650 C 339.737 263.319,339.831 261.997,337.450 264.581 C 336.097 266.048,334.639 267.023,329.840 269.669 C 329.265 269.985,321.059 274.736,311.604 280.226 C 302.150 285.716,293.938 290.461,293.355 290.772 C 292.772 291.083,288.690 293.434,284.283 295.997 C 279.877 298.560,267.542 305.699,256.874 311.862 C 246.205 318.025,230.104 327.326,221.092 332.531 L 204.708 341.995 199.099 341.995 L 193.490 341.996 189.683 339.801 C 187.589 338.594,181.384 335.012,175.895 331.842 C 170.405 328.672,164.727 325.405,163.277 324.582 C 161.827 323.759,160.132 322.762,159.510 322.367 C 158.889 321.972,154.058 319.169,148.776 316.138 C 140.211 311.224,136.318 308.979,130.919 305.838 C 130.029 305.320,127.878 304.081,126.138 303.084 C 124.399 302.088,120.687 299.938,117.891 298.306 C 115.094 296.674,111.959 294.881,110.923 294.321 C 109.887 293.761,107.429 292.335,105.461 291.152 C 103.493 289.970,100.612 288.290,99.058 287.419 C 97.505 286.548,95.403 285.326,94.388 284.703 C 93.373 284.081,91.255 282.883,89.680 282.042 C 88.106 281.200,86.563 280.304,86.252 280.050 C 85.942 279.797,83.653 278.451,81.168 277.059 C 78.682 275.667,74.953 273.527,72.881 272.303 C 70.810 271.079,67.674 269.274,65.913 268.292 C 62.013 266.118,59.342 263.567,58.780 261.479 C 58.494 260.415,58.402 236.936,58.471 182.056 L 58.569 104.143 59.631 102.371 C 60.812 100.399,62.671 98.946,67.420 96.286 C 69.181 95.300,72.910 93.167,75.706 91.546 C 78.503 89.925,82.994 87.335,85.687 85.791 C 88.380 84.246,92.194 82.045,94.162 80.899 C 96.130 79.753,99.944 77.546,102.637 75.995 C 125.569 62.787,125.428 62.868,139.925 54.539 C 146.968 50.493,154.765 45.999,157.250 44.553 C 159.736 43.106,166.940 38.953,173.258 35.324 C 179.576 31.694,186.441 27.733,188.512 26.521 C 191.523 24.760,192.732 24.265,194.539 24.056 C 197.597 23.702,204.548 24.037,205.190 24.569 M183.050 49.203 C 179.632 51.199,175.480 53.590,173.823 54.515 C 172.166 55.441,169.454 57.005,167.797 57.989 C 166.139 58.974,161.902 61.438,158.380 63.465 C 154.859 65.492,151.045 67.698,149.906 68.367 C 148.766 69.036,146.139 70.560,144.068 71.754 C 137.166 75.731,127.897 81.082,125.800 82.300 C 124.661 82.962,121.525 84.773,118.832 86.324 C 106.931 93.180,95.438 99.819,90.395 102.751 C 88.427 103.895,84.783 105.988,82.298 107.401 C 79.812 108.813,77.269 110.380,76.648 110.881 L 75.518 111.793 75.410 181.791 C 75.351 220.290,75.402 252.343,75.523 253.020 C 75.735 254.205,76.811 255.155,79.733 256.736 C 80.427 257.112,86.680 260.706,88.820 261.959 C 89.173 262.166,91.379 263.437,93.721 264.783 C 96.063 266.130,98.265 267.402,98.613 267.610 C 98.962 267.818,100.579 268.750,102.207 269.681 C 103.835 270.613,105.953 271.845,106.915 272.419 C 108.192 273.181,109.018 273.421,109.981 273.308 C 110.976 273.191,145.736 253.616,155.179 247.855 C 156.393 247.114,190.028 227.650,191.013 227.119 C 191.860 226.661,202.677 220.426,207.780 217.453 C 208.434 217.072,210.889 215.659,213.237 214.313 C 215.584 212.966,217.798 211.695,218.156 211.488 C 218.514 211.281,221.736 209.417,225.317 207.347 C 228.897 205.277,232.210 203.206,232.679 202.745 L 233.531 201.908 233.432 188.095 C 233.345 175.962,233.261 174.236,232.736 173.905 C 232.273 173.613,230.322 174.574,224.073 178.172 C 219.637 180.726,214.397 183.730,212.429 184.846 C 210.461 185.963,207.326 187.765,205.461 188.851 C 203.597 189.937,196.817 193.853,190.395 197.553 C 178.250 204.550,175.221 206.296,167.043 211.017 C 164.350 212.571,159.944 215.112,157.250 216.662 C 154.557 218.213,144.642 223.947,135.217 229.405 C 113.137 242.190,111.819 242.586,107.270 237.793 C 104.947 235.345,105.084 238.812,105.088 182.780 L 105.092 131.638 105.980 129.755 C 107.215 127.136,108.442 126.204,117.137 121.280 C 118.691 120.400,120.471 119.382,121.092 119.017 C 121.714 118.651,123.917 117.375,125.989 116.181 C 134.970 111.001,139.847 108.210,144.256 105.730 C 146.846 104.273,149.642 102.652,150.471 102.128 C 151.299 101.604,153.672 100.216,155.744 99.044 C 157.815 97.872,161.798 95.589,164.595 93.972 C 167.392 92.354,171.798 89.814,174.388 88.327 C 176.977 86.840,181.284 84.367,183.957 82.831 C 186.631 81.295,189.301 79.588,189.890 79.039 L 190.960 78.041 190.960 62.403 C 190.960 53.803,190.858 46.498,190.732 46.170 C 190.332 45.127,189.400 45.495,183.050 49.203 M229.190 76.323 C 218.617 82.431,216.087 83.886,213.559 85.309 C 212.006 86.184,205.989 89.659,200.188 93.031 C 194.388 96.403,187.354 100.472,184.557 102.074 C 181.761 103.675,169.727 110.625,157.815 117.518 C 139.011 128.400,131.842 132.544,124.763 136.620 C 121.795 138.329,122.034 134.758,122.034 177.454 C 122.034 198.521,122.135 216.022,122.259 216.344 C 122.486 216.935,125.311 215.657,129.755 212.953 C 130.584 212.449,131.516 211.924,131.827 211.785 C 132.137 211.647,133.239 210.997,134.275 210.341 C 135.311 209.685,136.921 208.736,137.853 208.232 C 143.570 205.144,147.586 202.533,147.790 201.771 C 147.912 201.315,148.016 190.942,148.020 178.719 C 148.029 151.239,147.536 153.208,155.558 148.555 C 162.130 144.743,204.840 120.154,206.417 119.275 C 207.225 118.824,209.629 117.443,211.758 116.205 C 213.888 114.968,216.094 113.697,216.660 113.381 C 217.226 113.065,218.667 112.229,219.862 111.524 C 222.625 109.893,223.466 109.408,228.060 106.792 C 230.132 105.613,232.208 104.293,232.674 103.859 L 233.522 103.070 233.522 89.275 C 233.522 72.629,233.856 73.627,229.190 76.323 M271.186 200.450 C 262.495 205.492,255.818 209.338,242.561 216.936 C 239.972 218.420,236.204 220.598,234.188 221.776 C 232.173 222.953,228.613 225.003,226.279 226.330 C 223.944 227.656,218.814 230.606,214.878 232.883 C 210.942 235.161,206.196 237.900,204.331 238.972 C 193.055 245.450,177.691 254.305,176.083 255.252 C 174.082 256.431,173.511 257.470,174.643 257.876 C 175.550 258.202,180.548 261.105,180.799 261.452 C 180.906 261.601,181.415 261.915,181.929 262.149 C 182.442 262.384,183.371 262.863,183.992 263.213 C 184.614 263.564,186.309 264.512,187.759 265.321 C 189.209 266.129,190.480 266.906,190.584 267.047 C 190.687 267.188,191.224 267.542,191.776 267.833 C 192.328 268.124,193.853 268.927,195.165 269.619 C 196.478 270.310,197.713 271.031,197.910 271.220 C 198.630 271.911,199.998 271.525,202.699 269.868 C 204.218 268.936,205.927 267.987,206.497 267.760 C 207.067 267.532,207.533 267.210,207.533 267.043 C 207.533 266.877,208.051 266.560,208.685 266.339 C 209.318 266.118,210.598 265.424,211.528 264.795 C 212.459 264.167,213.359 263.653,213.527 263.653 C 213.696 263.653,214.247 263.329,214.750 262.933 C 215.254 262.537,217.014 261.497,218.662 260.623 C 220.309 259.749,221.911 258.835,222.222 258.592 C 222.533 258.348,223.211 257.936,223.729 257.675 C 224.247 257.414,225.179 256.912,225.800 256.560 C 226.422 256.208,227.947 255.345,229.190 254.643 C 230.433 253.941,231.704 253.155,232.015 252.896 C 232.326 252.638,233.936 251.709,235.593 250.833 C 237.250 249.957,238.874 249.009,239.201 248.726 C 239.528 248.443,239.971 248.211,240.186 248.211 C 240.401 248.211,240.982 247.892,241.479 247.501 C 242.360 246.808,245.386 245.036,247.646 243.889 C 248.267 243.574,249.226 243.019,249.775 242.656 C 250.663 242.070,253.805 240.237,257.062 238.405 C 257.684 238.056,259.089 237.238,260.186 236.587 C 261.283 235.937,262.265 235.405,262.370 235.405 C 262.474 235.405,263.487 234.812,264.621 234.087 C 265.754 233.362,266.788 232.768,266.917 232.768 C 267.047 232.768,268.044 232.177,269.132 231.455 C 270.220 230.733,271.509 229.968,271.996 229.756 C 273.525 229.088,275.470 227.824,275.962 227.176 C 276.630 226.299,276.673 199.234,276.008 198.569 C 275.399 197.960,275.642 197.865,271.186 200.450 M318.062 222.874 C 316.000 224.042,302.957 231.544,289.077 239.545 C 275.198 247.547,263.588 254.219,263.277 254.372 C 262.966 254.525,262.084 255.023,261.318 255.479 C 259.165 256.760,248.184 263.116,246.704 263.937 C 245.979 264.340,244.520 265.204,243.461 265.856 C 242.402 266.509,241.399 267.043,241.231 267.043 C 241.063 267.043,240.658 267.274,240.331 267.557 C 240.004 267.840,238.380 268.798,236.723 269.688 C 235.066 270.577,233.306 271.617,232.812 271.999 C 232.318 272.381,231.738 272.693,231.523 272.693 C 231.308 272.693,230.865 272.924,230.538 273.207 C 230.211 273.489,228.588 274.445,226.930 275.330 C 225.273 276.215,223.663 277.151,223.352 277.410 C 222.873 277.810,219.665 279.646,215.063 282.154 C 214.448 282.489,213.731 282.931,213.470 283.137 C 213.208 283.342,211.638 284.239,209.981 285.129 C 208.324 286.019,206.564 287.059,206.070 287.441 C 205.576 287.823,204.961 288.136,204.703 288.136 C 204.446 288.136,204.032 288.381,203.784 288.680 C 203.047 289.567,199.707 290.087,197.468 289.662 C 195.791 289.344,181.014 281.339,174.576 277.261 C 173.955 276.868,171.751 275.583,169.680 274.408 C 167.608 273.232,165.659 272.118,165.348 271.933 C 158.619 267.927,156.676 266.963,155.791 267.194 C 153.767 267.722,127.872 283.089,127.872 283.762 C 127.872 284.399,130.655 286.255,136.090 289.243 C 137.494 290.015,145.393 294.599,146.516 295.293 C 153.753 299.768,198.416 325.047,199.086 325.047 C 199.597 325.047,203.032 323.310,206.720 321.186 C 210.408 319.063,213.873 317.072,214.421 316.761 C 214.969 316.450,218.706 314.287,222.726 311.954 C 226.745 309.621,230.522 307.444,231.119 307.116 C 231.715 306.789,232.817 306.155,233.567 305.709 C 234.317 305.262,236.414 304.049,238.227 303.013 C 240.040 301.977,242.245 300.706,243.128 300.188 C 245.790 298.626,251.714 295.220,252.919 294.559 C 253.540 294.218,254.773 293.477,255.658 292.911 C 256.543 292.345,258.238 291.368,259.424 290.740 C 260.611 290.111,262.210 289.226,262.977 288.772 C 265.463 287.303,269.465 284.972,270.517 284.380 C 271.082 284.063,272.688 283.126,274.087 282.298 C 277.249 280.425,278.688 279.616,279.680 279.154 C 280.105 278.957,281.223 278.275,282.164 277.640 C 283.105 277.005,284.283 276.306,284.781 276.087 C 285.280 275.868,286.365 275.277,287.194 274.775 C 288.023 274.273,289.124 273.672,289.641 273.439 C 290.159 273.207,290.837 272.798,291.148 272.530 C 291.459 272.262,293.070 271.318,294.727 270.433 C 296.384 269.548,297.994 268.626,298.305 268.383 C 298.616 268.141,299.294 267.739,299.812 267.490 C 300.330 267.241,301.347 266.675,302.072 266.232 C 302.797 265.790,304.322 264.920,305.461 264.299 C 306.601 263.679,307.787 262.974,308.098 262.732 C 308.409 262.490,309.087 262.084,309.605 261.828 C 310.122 261.573,310.885 261.153,311.299 260.895 C 311.714 260.637,312.731 260.044,313.559 259.577 C 314.388 259.111,315.695 258.354,316.465 257.896 C 317.234 257.437,318.794 256.514,319.932 255.844 C 322.930 254.079,322.787 255.001,322.787 237.359 C 322.787 218.631,323.219 219.955,318.062 222.874 " stroke="none" fill="#040404" fill-rule="evenodd"></path><path id="path3" d="M180.038 32.814 C 171.855 37.569,164.611 41.750,163.940 42.105 C 163.268 42.459,160.048 44.299,156.783 46.193 C 153.519 48.086,150.212 49.993,149.435 50.430 C 148.658 50.867,147.387 51.581,146.610 52.018 C 145.833 52.454,145.028 52.940,144.821 53.097 C 144.614 53.254,143.639 53.830,142.655 54.375 C 141.671 54.921,140.061 55.814,139.077 56.359 C 138.093 56.905,136.356 57.905,135.217 58.581 C 134.077 59.258,117.467 68.832,98.305 79.856 C 62.401 100.513,61.469 101.101,60.122 103.955 L 59.322 105.650 59.223 182.673 C 59.113 268.835,58.900 261.959,61.763 264.542 C 62.492 265.200,67.241 268.134,72.316 271.062 C 77.392 273.990,99.934 287.016,122.411 300.008 C 144.887 313.000,164.040 324.061,164.972 324.589 C 165.904 325.116,172.514 328.927,179.661 333.058 C 196.872 343.006,194.804 342.085,199.577 341.934 L 203.578 341.808 212.806 336.483 C 217.881 333.555,227.797 327.814,234.840 323.725 C 241.883 319.637,248.578 315.774,249.718 315.141 C 250.857 314.508,253.060 313.236,254.614 312.314 C 256.168 311.391,258.202 310.214,259.134 309.697 C 260.791 308.777,263.781 307.045,271.375 302.602 C 273.446 301.390,275.864 300.006,276.748 299.527 C 277.632 299.049,279.899 297.730,281.787 296.598 C 283.674 295.465,285.284 294.539,285.364 294.539 C 285.491 294.539,289.011 292.488,296.045 288.315 C 297.185 287.639,298.879 286.660,299.812 286.140 C 300.744 285.619,302.473 284.626,303.653 283.934 C 306.173 282.455,314.385 277.707,317.891 275.702 C 335.670 265.531,337.096 264.571,338.278 261.967 C 339.069 260.227,339.380 206.464,338.615 203.797 C 337.771 200.855,334.983 198.300,332.392 198.093 C 329.351 197.851,327.581 198.664,314.689 206.223 C 312.825 207.316,310.621 208.583,309.793 209.039 C 308.964 209.494,305.026 211.738,301.042 214.025 C 294.982 217.503,293.705 218.105,293.227 217.708 C 292.732 217.297,292.655 214.984,292.655 200.349 C 292.655 189.262,292.510 182.779,292.231 181.469 C 291.424 177.670,287.296 174.715,283.704 175.363 C 281.898 175.689,283.070 175.062,266.436 184.607 C 252.446 192.634,250.449 193.559,249.946 192.248 C 249.820 191.920,249.718 184.316,249.718 175.350 C 249.718 165.847,249.557 158.204,249.333 157.023 C 248.591 153.108,245.294 150.493,241.422 150.747 C 239.041 150.903,243.251 148.580,195.292 176.201 C 191.149 178.588,186.064 181.501,183.992 182.675 C 181.921 183.849,176.779 186.795,172.565 189.221 C 166.440 192.749,164.798 193.545,164.373 193.192 C 163.636 192.580,163.578 163.185,164.313 162.267 C 164.572 161.943,182.072 151.715,203.202 139.538 C 249.552 112.827,246.643 114.570,247.967 112.712 C 249.529 110.520,249.593 109.096,249.360 81.544 L 249.153 57.062 248.023 55.395 C 246.607 53.307,244.201 51.977,241.837 51.977 C 239.886 51.977,238.650 52.559,231.262 56.948 C 229.708 57.871,227.081 59.357,225.424 60.249 C 223.766 61.142,222.156 62.081,221.846 62.335 C 221.535 62.590,219.925 63.524,218.267 64.412 C 216.610 65.299,214.804 66.339,214.254 66.723 C 213.705 67.106,213.166 67.420,213.057 67.420 C 212.949 67.420,211.857 68.018,210.630 68.748 C 206.325 71.313,206.403 71.684,206.401 48.657 C 206.400 37.432,206.248 29.024,206.032 28.249 C 205.637 26.831,203.596 24.105,202.928 24.105 C 202.704 24.105,203.132 24.699,203.880 25.425 C 205.996 27.480,206.022 27.773,206.024 49.163 C 206.027 70.281,206.040 70.433,207.971 70.433 C 208.396 70.433,214.946 66.848,222.527 62.466 C 238.613 53.169,240.182 52.354,241.990 52.354 C 244.714 52.354,247.389 54.387,248.387 57.214 C 249.387 60.050,249.225 108.805,248.208 111.047 C 247.125 113.432,246.050 114.207,235.028 120.543 C 232.024 122.270,227.194 125.062,224.294 126.748 C 221.394 128.434,218.089 130.327,216.949 130.955 C 215.093 131.978,207.079 136.587,205.650 137.453 C 204.430 138.193,180.889 151.766,179.473 152.546 C 178.644 153.002,177.797 153.503,177.589 153.658 C 177.382 153.813,176.281 154.451,175.141 155.076 C 174.002 155.700,171.968 156.850,170.621 157.630 C 169.275 158.410,167.517 159.406,166.715 159.844 C 165.912 160.282,164.853 161.014,164.361 161.470 L 163.465 162.299 163.465 177.733 C 163.465 194.172,163.525 194.716,165.265 194.082 C 165.900 193.851,174.375 189.010,196.610 176.179 C 202.721 172.652,211.111 167.812,215.254 165.424 C 219.397 163.035,224.736 159.949,227.119 158.565 C 240.743 150.650,242.665 150.055,246.115 152.686 C 248.798 154.733,248.754 154.391,248.964 174.613 C 249.188 196.184,249.024 195.569,253.804 192.693 C 262.067 187.720,281.831 176.641,283.127 176.256 C 286.646 175.211,290.682 177.778,291.498 181.580 C 291.752 182.765,291.902 189.798,291.902 200.525 C 291.902 216.575,291.943 217.623,292.591 218.209 C 293.626 219.146,293.442 219.227,303.653 213.318 C 318.353 204.813,326.224 200.323,327.841 199.522 C 331.114 197.901,334.832 198.844,336.904 201.821 L 338.041 203.454 338.149 231.485 C 338.224 250.842,338.130 259.988,337.847 261.040 C 337.129 263.707,335.352 264.934,316.375 275.873 C 306.333 281.661,279.303 297.265,256.309 310.547 C 233.315 323.830,213.569 335.210,212.429 335.836 C 211.290 336.462,209.087 337.739,207.533 338.673 C 202.903 341.458,202.439 341.620,199.060 341.620 C 195.888 341.620,195.989 341.652,191.714 339.251 C 191.196 338.960,189.755 338.164,188.512 337.481 C 187.269 336.799,185.998 336.022,185.687 335.755 C 185.376 335.488,184.698 335.086,184.180 334.862 C 183.663 334.638,182.561 334.030,181.733 333.510 C 180.904 332.990,179.972 332.457,179.661 332.326 C 179.350 332.196,178.842 331.884,178.531 331.634 C 178.220 331.384,177.034 330.672,175.895 330.052 C 173.295 328.637,171.137 327.403,169.680 326.499 C 169.058 326.113,168.041 325.537,167.420 325.218 C 166.798 324.900,165.612 324.232,164.783 323.733 C 163.955 323.234,162.938 322.651,162.524 322.436 C 162.109 322.222,161.092 321.619,160.264 321.096 C 159.435 320.574,158.249 319.887,157.627 319.571 C 157.006 319.255,155.989 318.663,155.367 318.255 C 154.746 317.846,153.729 317.247,153.107 316.922 C 152.486 316.598,151.299 315.924,150.471 315.426 C 149.642 314.927,148.625 314.365,148.211 314.176 C 147.797 313.988,146.529 313.221,145.395 312.472 C 144.260 311.724,143.172 311.111,142.976 311.111 C 142.781 311.111,142.353 310.881,142.026 310.599 C 141.699 310.317,140.499 309.579,139.360 308.959 C 136.912 307.628,134.709 306.372,133.145 305.419 C 132.524 305.040,131.507 304.472,130.885 304.157 C 130.264 303.841,129.077 303.155,128.249 302.632 C 127.420 302.110,126.403 301.518,125.989 301.318 C 125.574 301.118,124.557 300.533,123.729 300.017 C 122.900 299.501,121.714 298.821,121.092 298.506 C 120.471 298.190,119.411 297.592,118.738 297.177 C 118.065 296.762,116.963 296.082,116.290 295.667 C 115.617 295.252,114.557 294.654,113.936 294.338 C 113.315 294.023,112.128 293.343,111.299 292.827 C 110.471 292.311,109.454 291.725,109.040 291.525 C 108.625 291.325,107.608 290.734,106.780 290.211 C 105.951 289.688,104.765 289.001,104.143 288.683 C 103.522 288.365,102.382 287.731,101.610 287.273 C 100.838 286.815,99.312 285.956,98.220 285.363 C 97.127 284.770,95.979 284.082,95.669 283.835 C 95.358 283.587,94.680 283.181,94.162 282.933 C 93.644 282.684,92.542 282.056,91.714 281.535 C 90.885 281.015,89.868 280.426,89.454 280.226 C 89.040 280.026,88.023 279.440,87.194 278.925 C 86.365 278.409,85.179 277.728,84.557 277.412 C 83.936 277.096,82.919 276.498,82.298 276.083 C 81.676 275.668,80.659 275.062,80.038 274.738 C 79.416 274.413,78.230 273.747,77.401 273.257 C 76.573 272.766,75.471 272.128,74.953 271.837 C 73.195 270.852,71.002 269.576,69.868 268.878 C 69.247 268.495,68.363 268.018,67.905 267.816 C 65.196 266.624,62.065 264.214,61.105 262.580 L 60.075 260.829 59.960 184.181 C 59.836 101.514,59.765 104.601,61.857 102.218 C 63.173 100.720,62.885 100.892,97.740 80.784 C 112.034 72.539,130.085 62.119,137.853 57.630 C 145.621 53.141,161.638 43.903,173.446 37.101 C 185.254 30.299,195.076 24.592,195.273 24.420 C 196.499 23.343,193.302 25.105,180.038 32.814 M179.453 49.388 C 173.664 52.728,162.401 59.228,154.426 63.832 C 146.450 68.436,125.433 80.551,107.721 90.755 C 90.009 100.959,75.137 109.723,74.670 110.230 L 73.823 111.153 73.823 182.301 C 73.823 259.729,73.658 254.599,76.200 256.194 C 78.189 257.441,105.982 273.490,107.608 274.330 C 109.717 275.420,110.499 275.230,115.066 272.526 C 117.321 271.190,118.235 270.670,120.716 269.308 C 121.959 268.626,123.230 267.870,123.540 267.628 C 123.851 267.387,124.529 266.980,125.047 266.725 C 125.565 266.469,126.328 266.054,126.742 265.803 C 127.156 265.551,128.766 264.618,130.320 263.728 C 131.874 262.839,133.738 261.755,134.463 261.321 C 135.188 260.886,136.714 260.023,137.853 259.403 C 138.992 258.782,140.179 258.077,140.490 257.835 C 140.800 257.594,141.478 257.192,141.996 256.944 C 142.514 256.695,143.446 256.177,144.068 255.794 C 144.689 255.411,145.791 254.764,146.516 254.356 C 148.911 253.009,152.721 250.823,153.296 250.466 C 153.606 250.273,158.183 247.636,163.465 244.605 C 168.748 241.574,178.239 236.115,184.557 232.473 C 201.198 222.881,219.203 212.517,226.450 208.360 C 229.915 206.373,233.177 204.350,233.701 203.865 L 234.652 202.983 234.652 187.601 C 234.652 168.358,235.577 169.660,225.889 175.277 C 222.624 177.170,219.484 178.974,218.913 179.284 C 217.974 179.794,215.088 181.472,211.357 183.675 C 209.271 184.906,208.305 185.457,205.838 186.823 C 204.595 187.511,202.932 188.478,202.141 188.972 C 201.351 189.467,200.164 190.172,199.505 190.539 C 197.591 191.604,193.253 194.098,191.959 194.876 C 191.306 195.268,189.840 196.102,188.701 196.728 C 187.561 197.354,185.982 198.271,185.192 198.765 C 184.402 199.259,183.215 199.964,182.555 200.332 C 180.005 201.752,176.154 203.984,175.199 204.595 C 174.649 204.947,173.229 205.748,172.042 206.374 C 170.855 207.001,169.192 207.951,168.345 208.485 C 166.814 209.452,165.568 210.174,162.335 211.972 C 161.403 212.490,160.216 213.186,159.697 213.519 C 157.687 214.809,157.220 215.086,156.309 215.531 C 155.791 215.784,154.520 216.516,153.484 217.159 C 152.448 217.802,151.347 218.449,151.036 218.598 C 150.725 218.747,149.793 219.281,148.964 219.785 C 148.136 220.288,147.034 220.906,146.516 221.158 C 145.998 221.409,145.320 221.817,145.009 222.065 C 144.699 222.312,143.551 223.000,142.458 223.593 C 141.366 224.185,139.840 225.051,139.068 225.515 C 138.296 225.980,137.156 226.600,136.535 226.894 C 135.913 227.188,135.265 227.570,135.093 227.742 C 134.922 227.915,133.870 228.565,132.757 229.188 C 131.643 229.811,127.810 232.015,124.240 234.087 C 113.769 240.161,111.062 240.514,107.796 236.231 L 106.780 234.898 106.780 183.080 L 106.780 131.262 107.627 129.900 C 108.765 128.069,106.319 129.543,150.659 103.968 C 172.307 91.482,190.527 80.774,191.149 80.174 L 192.279 79.082 192.396 62.611 C 192.522 44.889,192.394 43.315,190.832 43.315 C 190.364 43.315,185.243 46.047,179.453 49.388 M191.700 44.796 C 192.226 45.779,192.233 77.070,191.708 78.569 C 191.221 79.960,191.400 79.845,175.330 89.093 C 167.872 93.385,156.770 99.775,150.659 103.294 C 133.167 113.365,122.676 119.389,116.681 122.805 C 109.345 126.986,107.808 128.136,106.976 130.066 C 106.140 132.007,105.394 231.227,106.194 234.196 C 107.324 238.394,111.956 240.769,115.945 239.196 C 117.036 238.766,130.420 231.187,145.687 222.353 C 160.955 213.519,181.582 201.596,191.525 195.857 C 201.469 190.117,214.500 182.582,220.482 179.111 C 231.706 172.600,233.145 171.902,233.860 172.617 C 234.148 172.905,234.275 177.544,234.275 187.769 L 234.275 202.505 233.427 203.295 C 232.651 204.019,216.453 213.559,216.001 213.559 C 215.893 213.559,215.119 213.992,214.281 214.521 C 212.555 215.610,211.112 216.447,207.377 218.525 C 205.944 219.322,204.588 220.118,204.363 220.294 C 204.139 220.471,203.107 221.085,202.072 221.659 C 199.363 223.160,195.762 225.210,195.104 225.625 C 194.793 225.820,188.098 229.685,180.226 234.212 C 166.363 242.184,145.271 254.341,122.470 267.502 C 108.745 275.425,110.343 275.148,102.923 270.890 C 80.731 258.154,75.490 255.008,75.090 254.180 C 74.777 253.533,74.626 234.292,74.525 182.399 L 74.388 111.503 75.518 110.406 C 76.139 109.802,93.173 99.775,113.371 88.123 C 133.569 76.470,152.128 65.747,154.614 64.293 C 157.100 62.838,160.473 60.900,162.110 59.986 C 165.109 58.310,165.952 57.814,168.362 56.304 C 169.485 55.600,172.283 54.000,182.423 48.265 C 183.286 47.777,184.586 46.988,185.311 46.513 C 189.020 44.082,191.029 43.542,191.700 44.796 M232.134 72.885 C 231.480 73.160,214.279 83.004,193.910 94.762 C 173.540 106.519,152.128 118.874,146.328 122.217 C 140.527 125.559,132.589 130.135,128.686 132.384 C 124.617 134.729,121.324 136.881,120.965 137.429 C 120.187 138.616,119.767 214.438,120.524 217.043 C 121.124 219.110,122.357 218.966,126.986 216.290 C 129.046 215.099,131.201 213.870,131.774 213.559 C 136.904 210.778,147.706 204.325,148.263 203.709 C 148.926 202.976,148.974 201.685,149.153 179.716 C 149.340 156.603,149.345 156.490,150.180 154.928 C 151.296 152.841,149.076 154.210,183.804 134.192 C 200.687 124.459,215.205 116.090,216.065 115.593 C 218.819 114.001,222.752 111.754,223.960 111.081 C 226.498 109.669,226.951 109.401,227.495 108.993 C 227.806 108.760,229.106 108.014,230.384 107.336 C 234.636 105.080,234.663 105.031,234.580 99.702 L 234.509 95.104 234.298 99.703 C 234.113 103.723,233.992 104.372,233.333 104.859 C 232.919 105.165,227.072 108.593,220.339 112.475 C 195.485 126.808,185.784 132.387,182.109 134.464 C 155.566 149.460,151.381 152.026,150.004 154.144 L 148.964 155.744 148.776 179.177 C 148.614 199.337,148.509 202.688,148.023 203.166 C 147.216 203.959,124.012 217.288,122.991 217.544 C 120.777 218.100,120.884 220.259,120.993 177.338 L 121.092 138.168 122.223 137.163 C 122.844 136.610,134.031 129.989,147.081 122.449 C 160.132 114.910,174.539 106.581,179.096 103.940 C 237.647 70.021,233.868 72.020,234.389 74.698 C 234.500 75.265,234.565 75.144,234.600 74.307 C 234.667 72.722,233.763 72.200,232.134 72.885 M234.772 78.343 C 234.772 79.689,234.841 80.240,234.924 79.567 C 235.008 78.894,235.008 77.792,234.924 77.119 C 234.841 76.445,234.772 76.996,234.772 78.343 M264.972 202.274 C 259.379 205.562,254.362 208.472,253.825 208.740 C 253.287 209.008,248.322 211.855,242.790 215.066 C 237.258 218.277,232.189 221.216,231.526 221.598 C 228.285 223.464,218.255 229.288,217.025 230.018 C 216.258 230.474,215.292 231.029,214.878 231.251 C 214.463 231.474,213.446 232.064,212.618 232.563 C 211.789 233.062,210.603 233.735,209.981 234.060 C 209.360 234.384,208.343 234.990,207.721 235.405 C 207.100 235.820,206.083 236.421,205.461 236.739 C 204.840 237.058,203.653 237.720,202.825 238.210 C 201.996 238.700,200.895 239.343,200.377 239.640 C 199.859 239.936,198.757 240.570,197.928 241.049 C 197.100 241.527,195.490 242.427,194.350 243.048 C 193.211 243.668,192.049 244.357,191.768 244.578 C 191.178 245.042,190.120 245.677,188.512 246.532 C 187.891 246.862,186.704 247.538,185.876 248.033 C 185.047 248.528,183.861 249.194,183.239 249.513 C 182.618 249.832,181.601 250.432,180.979 250.847 C 180.358 251.263,179.341 251.859,178.719 252.172 C 178.098 252.486,177.250 252.951,176.836 253.206 C 176.422 253.462,175.281 254.164,174.300 254.766 C 171.095 256.737,171.497 257.700,176.733 260.600 C 179.094 261.908,184.439 264.941,185.761 265.724 C 186.112 265.932,188.146 267.108,190.281 268.339 C 192.415 269.569,194.915 271.052,195.836 271.635 C 199.039 273.659,197.906 274.162,223.861 259.190 C 236.735 251.763,248.032 245.263,248.964 244.746 C 249.896 244.229,251.591 243.258,252.731 242.589 C 255.164 241.161,254.893 241.318,259.698 238.531 C 261.769 237.330,263.800 236.210,264.210 236.044 C 264.620 235.878,265.214 235.520,265.529 235.250 C 265.844 234.979,267.034 234.250,268.173 233.629 C 269.313 233.009,270.838 232.143,271.563 231.704 C 272.288 231.266,273.394 230.673,274.021 230.386 C 274.647 230.099,275.791 229.269,276.563 228.541 L 277.966 227.218 277.966 212.692 C 277.966 204.165,277.814 197.767,277.599 197.200 C 276.942 195.473,275.672 195.984,264.972 202.274 M277.239 198.305 C 277.556 199.935,277.172 226.822,276.823 227.495 C 276.516 228.086,272.075 230.730,254.237 240.939 C 248.333 244.318,243.249 247.244,242.938 247.442 C 242.627 247.640,240.508 248.850,238.230 250.131 C 235.951 251.412,233.493 252.836,232.768 253.296 C 230.984 254.427,229.927 255.034,224.294 258.162 C 223.271 258.730,218.549 261.487,214.878 263.660 C 213.220 264.641,210.847 265.991,209.605 266.660 C 208.362 267.330,206.751 268.245,206.026 268.694 C 203.632 270.177,203.217 270.418,201.425 271.371 C 200.448 271.891,199.366 272.316,199.021 272.316 C 198.481 272.316,178.680 261.101,174.670 258.524 C 171.817 256.690,171.340 257.054,192.765 244.712 C 203.477 238.541,214.614 232.120,217.514 230.444 C 220.414 228.768,234.143 220.833,248.023 212.811 C 261.902 204.788,273.766 197.949,274.388 197.613 C 276.032 196.724,276.977 196.953,277.239 198.305 M318.832 220.680 C 316.061 222.320,252.223 259.214,218.079 278.908 C 200.328 289.147,201.575 288.512,199.208 288.512 C 196.937 288.512,195.451 287.854,188.573 283.804 C 187.165 282.976,185.555 282.043,184.995 281.733 C 184.434 281.422,182.824 280.490,181.416 279.661 C 180.009 278.832,178.399 277.900,177.838 277.589 C 177.277 277.279,175.658 276.347,174.240 275.518 C 172.822 274.689,170.792 273.530,169.729 272.943 C 168.666 272.355,167.373 271.596,166.855 271.257 C 166.337 270.917,165.151 270.233,164.218 269.737 C 163.286 269.241,162.269 268.634,161.959 268.388 C 158.370 265.552,155.857 265.290,152.261 267.380 C 151.332 267.920,149.497 268.956,148.184 269.682 C 146.870 270.409,145.585 271.214,145.327 271.471 C 145.069 271.729,144.719 271.940,144.549 271.940 C 144.378 271.940,142.874 272.745,141.207 273.729 C 139.539 274.713,137.213 276.051,136.037 276.703 C 126.043 282.239,124.598 283.496,126.461 285.034 C 127.030 285.504,135.377 290.436,145.009 295.995 C 154.642 301.553,170.382 310.640,179.986 316.188 C 189.590 321.736,197.895 326.441,198.442 326.645 C 199.312 326.969,212.033 320.229,219.209 315.640 C 219.520 315.442,221.045 314.554,222.599 313.667 C 224.153 312.781,225.710 311.886,226.059 311.678 C 226.408 311.470,227.679 310.743,228.884 310.062 C 230.088 309.382,231.328 308.672,231.638 308.485 C 231.949 308.298,234.153 307.025,236.535 305.656 C 238.917 304.288,241.121 303.015,241.431 302.829 C 241.742 302.642,244.623 300.970,247.834 299.113 C 251.045 297.255,254.266 295.389,254.991 294.967 C 257.374 293.577,261.936 290.966,262.518 290.660 C 262.832 290.494,263.717 289.986,264.485 289.530 C 267.067 287.997,287.554 276.163,289.077 275.325 C 289.906 274.869,290.753 274.366,290.960 274.206 C 291.630 273.692,320.914 256.874,321.141 256.874 C 321.262 256.874,322.021 256.351,322.827 255.712 L 324.294 254.551 324.294 237.143 C 324.294 216.259,324.623 217.252,318.832 220.680 M323.730 221.186 C 323.853 221.860,323.903 229.483,323.841 238.127 L 323.729 253.844 322.787 254.768 C 322.269 255.277,317.524 258.163,312.241 261.183 C 306.959 264.202,302.382 266.833,302.072 267.030 C 301.761 267.226,300.242 268.115,298.696 269.004 C 297.150 269.894,295.008 271.130,293.937 271.751 C 292.865 272.373,290.062 273.964,287.708 275.288 C 285.354 276.612,282.834 278.075,282.109 278.539 C 280.423 279.618,276.088 282.109,275.896 282.109 C 275.816 282.109,274.220 283.041,272.350 284.181 C 270.479 285.320,268.863 286.252,268.757 286.252 C 268.651 286.252,267.671 286.818,266.580 287.510 C 265.488 288.202,263.663 289.279,262.524 289.904 C 258.338 292.198,256.664 293.154,255.744 293.776 C 254.949 294.313,250.436 296.924,246.623 299.052 C 246.061 299.366,244.620 300.198,243.422 300.900 C 242.223 301.602,240.684 302.477,240.002 302.845 C 239.319 303.213,238.556 303.674,238.307 303.869 C 238.057 304.064,236.921 304.733,235.782 305.356 C 233.923 306.373,229.233 309.075,226.742 310.564 C 226.224 310.873,224.220 312.013,222.289 313.096 C 220.358 314.180,218.494 315.238,218.146 315.447 C 217.240 315.994,215.044 317.258,207.125 321.793 C 202.805 324.267,199.723 325.800,199.071 325.800 C 198.372 325.800,190.825 321.651,176.691 313.495 C 164.963 306.727,149.350 297.721,141.996 293.483 C 125.036 283.708,125.652 284.154,127.213 282.772 C 129.319 280.907,155.084 266.525,156.309 266.530 C 157.345 266.535,161.502 268.781,175.706 277.010 C 199.455 290.768,198.963 290.573,203.451 288.021 C 209.436 284.617,213.995 281.978,217.807 279.709 C 219.419 278.751,220.833 277.966,220.951 277.966 C 221.068 277.966,221.614 277.649,222.164 277.260 C 222.714 276.872,224.058 276.067,225.150 275.471 C 226.243 274.875,227.768 274.011,228.540 273.549 C 229.312 273.088,230.282 272.540,230.697 272.332 C 231.111 272.123,232.128 271.535,232.957 271.025 C 233.785 270.515,236.667 268.845,239.360 267.314 C 242.053 265.784,246.420 263.274,249.065 261.738 C 251.710 260.202,254.337 258.691,254.903 258.380 C 255.469 258.068,256.610 257.409,257.439 256.913 C 258.267 256.418,259.878 255.501,261.017 254.876 C 262.156 254.251,263.493 253.428,263.987 253.047 C 264.481 252.666,265.061 252.354,265.275 252.354 C 265.490 252.354,265.933 252.124,266.260 251.842 C 266.587 251.560,267.787 250.826,268.927 250.211 C 270.066 249.596,271.676 248.668,272.505 248.149 C 273.333 247.630,275.367 246.476,277.024 245.585 C 278.682 244.694,280.292 243.762,280.603 243.515 C 280.913 243.267,282.185 242.501,283.427 241.813 C 284.670 241.125,286.238 240.249,286.911 239.867 C 287.585 239.484,288.771 238.814,289.548 238.378 C 290.325 237.942,291.130 237.456,291.337 237.298 C 291.707 237.017,293.443 236.036,297.552 233.783 C 298.691 233.158,300.471 232.112,301.507 231.458 C 302.542 230.804,304.322 229.750,305.461 229.116 C 306.601 228.482,310.431 226.271,313.972 224.202 C 322.601 219.161,323.320 218.939,323.730 221.186 " stroke="none" fill="#26815c" fill-rule="evenodd"></path><path id="path4" d="M191.902 25.313 C 190.866 25.945,181.290 31.501,170.621 37.658 C 159.953 43.816,141.394 54.531,129.379 61.469 C 117.363 68.407,98.041 79.552,86.441 86.236 C 59.259 101.897,59.785 101.520,59.309 105.715 L 59.145 107.156 59.513 105.732 C 60.617 101.450,59.648 102.097,98.305 79.856 C 117.467 68.832,134.077 59.258,135.217 58.581 C 136.356 57.905,138.093 56.905,139.077 56.359 C 140.061 55.814,141.671 54.921,142.655 54.375 C 143.639 53.830,144.614 53.254,144.821 53.097 C 145.028 52.940,145.833 52.454,146.610 52.018 C 147.387 51.581,148.658 50.867,149.435 50.430 C 150.212 49.993,153.526 48.086,156.800 46.193 C 160.074 44.299,163.379 42.402,164.145 41.976 C 168.255 39.693,194.216 24.689,194.520 24.421 C 195.382 23.661,193.631 24.258,191.902 25.313 M204.508 25.541 C 206.365 27.852,206.403 28.314,206.403 48.655 C 206.403 71.685,206.325 71.313,210.630 68.748 C 211.857 68.018,212.949 67.420,213.057 67.420 C 213.166 67.420,213.705 67.106,214.254 66.723 C 214.804 66.339,216.610 65.299,218.267 64.412 C 219.925 63.524,221.535 62.590,221.846 62.335 C 222.156 62.081,223.766 61.142,225.424 60.249 C 227.081 59.357,229.708 57.871,231.262 56.948 C 238.650 52.559,239.886 51.977,241.837 51.977 C 244.201 51.977,246.607 53.307,248.023 55.395 L 249.153 57.062 249.350 78.719 L 249.547 100.377 249.630 79.473 C 249.721 56.722,249.708 56.570,247.612 54.249 C 243.675 49.891,241.783 50.256,228.580 57.920 C 209.004 69.283,208.214 69.712,207.689 69.276 C 207.285 68.941,207.166 64.952,207.078 48.837 C 206.959 27.097,206.974 27.258,204.813 24.958 C 203.495 23.555,203.265 23.995,204.508 25.541 M188.136 44.875 C 187.307 45.301,186.036 46.038,185.311 46.513 C 184.586 46.988,183.286 47.777,182.423 48.265 C 172.283 54.000,169.485 55.600,168.362 56.304 C 165.952 57.814,165.109 58.310,162.110 59.986 C 160.473 60.900,157.100 62.838,154.614 64.293 C 152.128 65.747,133.569 76.470,113.371 88.123 C 93.173 99.775,76.139 109.802,75.518 110.405 L 74.388 111.502 74.375 130.986 L 74.361 150.471 74.563 131.037 C 74.786 109.507,74.562 111.151,77.524 109.298 C 79.752 107.904,184.729 47.342,187.708 45.732 C 191.931 43.449,191.782 42.793,191.638 62.984 C 191.530 78.122,191.498 78.726,190.772 79.442 C 190.087 80.118,170.394 91.596,140.490 108.750 C 134.171 112.375,128.832 115.515,128.625 115.729 C 128.374 115.988,128.374 116.053,128.625 115.923 C 129.539 115.451,183.561 84.371,188.336 81.571 C 192.298 79.247,192.090 80.355,192.090 61.533 C 192.090 42.607,192.141 42.818,188.136 44.875 M232.145 73.445 C 231.442 73.728,205.432 88.681,179.096 103.942 C 174.539 106.582,165.598 111.748,159.228 115.420 C 152.858 119.092,147.646 122.177,147.646 122.276 C 147.646 122.374,147.773 122.381,147.928 122.291 C 148.084 122.201,153.889 118.861,160.829 114.868 C 175.780 106.266,203.514 90.269,223.426 78.763 C 232.101 73.750,233.183 73.306,233.868 74.482 C 234.184 75.025,234.254 75.038,234.263 74.557 C 234.275 73.984,233.571 73.047,233.164 73.094 C 233.050 73.107,232.592 73.265,232.145 73.445 M234.440 85.311 C 234.440 90.904,234.492 93.245,234.556 90.512 C 234.621 87.780,234.621 83.203,234.557 80.343 C 234.493 77.482,234.440 79.718,234.440 85.311 M233.602 103.965 C 233.352 104.367,231.367 105.733,229.191 107.003 C 227.015 108.272,225.235 109.386,225.235 109.480 C 225.235 109.692,225.041 109.799,229.830 106.975 C 232.046 105.669,233.957 104.346,234.076 104.035 C 234.403 103.182,234.118 103.140,233.602 103.965 M249.449 108.286 C 249.451 109.322,249.525 109.701,249.611 109.129 C 249.698 108.556,249.695 107.709,249.606 107.245 C 249.517 106.782,249.446 107.250,249.449 108.286 M214.116 115.674 C 208.320 119.012,203.409 121.918,203.202 122.132 C 202.703 122.647,202.050 123.009,213.936 116.184 C 223.533 110.673,225.303 109.605,224.832 109.605 C 224.734 109.605,219.912 112.336,214.116 115.674 M248.385 112.027 C 247.862 113.069,246.887 114.041,245.334 115.066 C 244.079 115.895,242.730 116.787,242.336 117.049 C 241.942 117.311,242.213 117.244,242.938 116.902 C 246.162 115.377,249.739 111.950,249.284 110.821 C 249.212 110.642,248.807 111.184,248.385 112.027 M124.382 118.033 C 121.100 119.917,119.204 121.210,121.281 120.148 C 124.511 118.495,128.654 115.936,127.966 116.019 C 127.914 116.025,126.302 116.932,124.382 118.033 M235.687 120.743 C 234.279 121.507,234.365 121.825,235.782 121.092 C 236.403 120.771,236.911 120.428,236.911 120.329 C 236.911 120.087,236.871 120.101,235.687 120.743 M146.045 123.003 C 144.637 123.767,144.723 124.085,146.139 123.352 C 146.761 123.031,147.269 122.687,147.269 122.589 C 147.269 122.347,147.229 122.360,146.045 123.003 M196.309 125.945 C 190.821 129.104,188.024 130.872,190.584 129.564 C 192.244 128.716,202.058 123.049,202.429 122.724 C 203.252 122.003,202.135 122.591,196.309 125.945 M231.168 123.379 C 229.760 124.143,229.845 124.461,231.262 123.729 C 231.883 123.407,232.392 123.064,232.392 122.966 C 232.392 122.723,232.351 122.737,231.168 123.379 M114.407 123.756 C 112.999 124.520,113.084 124.838,114.501 124.105 C 115.122 123.784,115.631 123.441,115.631 123.342 C 115.631 123.100,115.590 123.114,114.407 123.756 M141.362 125.721 C 139.667 126.704,138.141 127.660,137.972 127.845 C 137.601 128.251,137.626 128.238,141.525 126.006 C 143.234 125.028,144.633 124.158,144.633 124.072 C 144.633 123.826,144.604 123.841,141.362 125.721 M110.112 126.347 C 108.150 127.669,106.590 129.327,106.593 130.088 C 106.594 130.319,106.927 129.963,107.333 129.297 C 107.739 128.631,109.010 127.463,110.156 126.701 C 111.978 125.492,112.512 125.047,112.142 125.047 C 112.087 125.047,111.174 125.632,110.112 126.347 M225.895 126.392 C 224.486 127.156,224.572 127.475,225.989 126.742 C 226.610 126.421,227.119 126.077,227.119 125.979 C 227.119 125.737,227.078 125.750,225.895 126.392 M135.311 129.230 C 134.223 129.864,133.333 130.469,133.333 130.575 C 133.333 130.784,136.683 128.922,137.269 128.387 C 137.908 127.804,137.328 128.054,135.311 129.230 M221.375 129.029 C 219.967 129.793,220.052 130.111,221.469 129.379 C 222.090 129.057,222.599 128.714,222.599 128.616 C 222.599 128.373,222.558 128.387,221.375 129.029 M218.738 130.536 C 217.330 131.299,217.416 131.618,218.832 130.885 C 219.454 130.564,219.962 130.220,219.962 130.122 C 219.962 129.880,219.922 129.893,218.738 130.536 M131.733 131.289 C 130.325 132.053,130.410 132.371,131.827 131.638 C 132.448 131.317,132.957 130.974,132.957 130.875 C 132.957 130.633,132.916 130.647,131.733 131.289 M185.220 132.337 C 182.297 134.014,181.917 134.531,184.746 132.981 C 186.805 131.854,187.986 131.056,187.552 131.085 C 187.459 131.091,186.409 131.654,185.220 132.337 M106.017 160.640 C 106.017 176.384,106.064 182.770,106.120 174.831 C 106.177 166.892,106.177 154.010,106.120 146.206 C 106.064 138.401,106.017 144.896,106.017 160.640 M129.096 132.795 C 127.688 133.559,127.774 133.878,129.190 133.145 C 129.812 132.824,130.320 132.480,130.320 132.382 C 130.320 132.140,130.280 132.153,129.096 132.795 M125.518 134.879 C 124.430 135.513,123.540 136.119,123.540 136.225 C 123.540 136.434,126.890 134.572,127.476 134.037 C 128.115 133.454,127.535 133.703,125.518 134.879 M181.073 134.679 C 179.665 135.443,179.751 135.761,181.168 135.028 C 181.789 134.707,182.298 134.364,182.298 134.265 C 182.298 134.023,182.257 134.037,181.073 134.679 M122.035 137.287 C 121.550 137.804,121.223 138.290,121.311 138.367 C 121.398 138.444,121.863 138.021,122.345 137.427 C 123.423 136.097,123.233 136.011,122.035 137.287 M173.917 138.822 C 172.509 139.586,172.595 139.904,174.011 139.171 C 174.633 138.850,175.141 138.507,175.141 138.408 C 175.141 138.166,175.101 138.180,173.917 138.822 M121.085 177.778 C 121.085 199.218,121.131 207.990,121.186 197.269 C 121.242 186.549,121.242 169.007,121.186 158.286 C 121.131 147.566,121.085 156.337,121.085 177.778 M168.644 141.835 C 167.236 142.599,167.322 142.917,168.738 142.185 C 169.360 141.863,169.868 141.520,169.868 141.422 C 169.868 141.179,169.828 141.193,168.644 141.835 M240.960 150.548 C 241.427 150.638,242.189 150.638,242.655 150.548 C 243.121 150.459,242.740 150.385,241.808 150.385 C 240.876 150.385,240.494 150.459,240.960 150.548 M244.821 151.260 C 245.546 151.574,246.647 152.287,247.268 152.846 L 248.397 153.861 247.456 152.789 C 246.463 151.657,244.812 150.649,243.992 150.674 C 243.723 150.682,244.096 150.946,244.821 151.260 M151.494 152.072 C 150.594 152.952,150.578 152.995,151.394 152.360 C 153.002 151.107,153.079 151.036,152.812 151.036 C 152.670 151.036,152.077 151.502,151.494 152.072 M148.576 179.473 C 148.576 191.695,148.623 196.640,148.682 190.463 C 148.740 184.285,148.740 174.285,148.681 168.240 C 148.623 162.196,148.576 167.250,148.576 179.473 M277.333 201.507 C 277.333 202.853,277.402 203.404,277.485 202.731 C 277.569 202.057,277.569 200.956,277.485 200.282 C 277.402 199.609,277.333 200.160,277.333 201.507 M277.300 205.273 C 277.300 205.998,277.378 206.295,277.472 205.932 C 277.567 205.570,277.567 204.976,277.472 204.614 C 277.378 204.251,277.300 204.548,277.300 205.273 " stroke="none" fill="#246664" fill-rule="evenodd"></path></g></svg>